<?xml version="1.0" standalone="no"?>
<!DOCTYPE svg PUBLIC "-//W3C//DTD SVG 20010904//EN"
 "http://www.w3.org/TR/2001/REC-SVG-20010904/DTD/svg10.dtd">
<svg version="1.0" xmlns="http://www.w3.org/2000/svg"
 width="405.000000pt" height="476.000000pt" viewBox="0 0 405.000000 476.000000"
 preserveAspectRatio="xMidYMid meet">

<g transform="translate(0.000000,476.000000) scale(0.100000,-0.100000)"
fill="#000000" stroke="none">
<path d="M2100 4738 c-61 -9 -80 -12 -182 -39 -72 -18 -202 -60 -213 -68 -5
-4 -38 -18 -73 -31 -34 -12 -87 -37 -116 -55 -29 -17 -59 -34 -67 -37 -8 -3
-54 -36 -103 -73 -63 -46 -96 -65 -110 -62 -12 3 -75 23 -141 45 -276 93 -283
93 -275 17 6 -56 85 -241 131 -307 25 -35 25 -43 -17 -134 -19 -43 -39 -88
-44 -99 -17 -39 -30 -153 -30 -260 0 -82 -4 -112 -15 -125 -13 -14 -13 -23 -1
-71 8 -30 18 -62 21 -71 5 -13 2 -18 -9 -18 -9 0 -16 -6 -16 -12 0 -29 50
-116 91 -161 48 -53 99 -75 152 -69 38 4 57 31 57 82 0 45 17 45 68 -2 52 -47
57 -61 27 -66 -62 -11 -100 -27 -133 -57 -30 -27 -54 -36 -122 -51 -47 -9 -92
-24 -100 -31 -13 -13 -12 -16 8 -33 36 -30 142 -13 203 32 14 9 31 5 92 -26
63 -31 87 -37 153 -40 44 -2 82 -4 87 -5 4 0 7 -10 7 -21 0 -26 16 -26 31 1
25 47 124 129 157 129 6 0 12 -7 12 -15 0 -8 -4 -15 -9 -15 -12 0 -57 -87 -49
-95 3 -4 17 0 30 8 50 32 179 46 178 19 -1 -4 -33 -29 -73 -57 l-72 -50 50 -6
c28 -3 43 -7 33 -7 -9 -1 -18 -5 -20 -10 -1 -4 -38 -24 -81 -45 -48 -24 -103
-62 -143 -99 -72 -67 -82 -67 -91 1 -7 54 -18 59 -39 19 -37 -73 -153 -197
-187 -200 -103 -8 -142 1 -134 31 7 29 -11 112 -30 133 -9 10 -26 18 -39 18
-13 0 -35 5 -48 12 -21 9 -29 8 -44 -5 -20 -18 -30 -14 -56 27 -10 15 -21 24
-26 20 -4 -5 -29 -63 -55 -129 -56 -142 -88 -206 -109 -224 -9 -8 -16 -11 -16
-7 0 4 23 75 52 159 47 137 52 160 51 232 -3 130 -20 320 -31 341 -16 30 -53
59 -116 93 -69 36 -87 38 -111 11 -24 -26 -14 -76 25 -126 55 -68 50 -120 -14
-151 -44 -21 -66 -6 -66 44 0 19 -9 48 -21 64 -19 26 -26 29 -80 29 -43 0 -59
4 -59 14 0 7 -2 26 -5 42 -5 24 1 37 38 76 88 93 95 225 12 204 -25 -6 -169
-142 -200 -189 -20 -31 -23 -168 -6 -234 9 -33 8 -48 -5 -79 -17 -42 -14 -126
5 -132 7 -2 11 -32 11 -76 0 -90 9 -103 125 -186 106 -75 190 -117 274 -139
63 -16 67 -18 89 -63 29 -63 65 -81 142 -74 48 4 63 2 83 -14 16 -13 41 -20
67 -20 45 0 74 23 116 91 13 22 27 33 40 32 113 -14 188 -3 242 36 37 26 52
13 51 -45 0 -21 2 -64 5 -94 3 -30 8 -84 12 -120 3 -36 7 -78 9 -95 1 -16 8
-66 14 -110 7 -44 14 -98 16 -120 3 -22 8 -56 11 -75 4 -19 8 -44 9 -55 2 -11
10 -63 18 -115 9 -52 19 -117 22 -145 3 -27 8 -58 11 -67 6 -19 2 -21 -89 -53
-57 -20 -91 -65 -81 -105 3 -14 8 -47 10 -74 5 -56 22 -80 70 -98 19 -7 34
-16 34 -21 0 -10 -87 1 -113 15 -19 10 -37 3 -37 -14 0 -6 16 -26 36 -45 l37
-34 -34 -29 c-40 -33 -35 -42 35 -59 68 -17 116 -38 116 -51 0 -6 -16 -18 -36
-26 -33 -14 -129 -102 -181 -166 -22 -27 -45 -34 -229 -67 -133 -24 -221 -8
-274 49 -40 43 -59 48 -111 26 -31 -13 -37 -12 -79 10 -25 14 -59 34 -77 45
-17 11 -33 16 -36 12 -2 -4 8 -38 23 -75 40 -98 111 -184 202 -243 109 -71
104 -88 -27 -92 -141 -6 -452 -33 -545 -49 -32 -6 -33 -7 -13 -15 13 -4 58
-11 100 -14 43 -3 94 -8 113 -10 103 -12 144 -16 202 -20 34 -2 81 -7 103 -9
22 -3 78 -7 125 -10 47 -3 101 -8 120 -11 32 -5 66 -8 250 -21 410 -30 1395
-34 1805 -8 127 8 148 8 273 1 59 -3 102 -2 102 3 0 5 -8 7 -17 3 -13 -4 -15
-3 -8 5 12 13 134 27 314 37 69 4 138 11 154 16 15 4 79 11 140 14 62 4 137
11 167 17 l55 12 -40 7 c-68 14 -372 42 -580 54 -98 6 -242 14 -272 14 -35 1
-28 19 27 71 60 57 62 78 14 136 -31 38 -40 44 -74 44 -31 0 -48 8 -85 40 -55
48 -111 73 -143 65 -26 -6 -62 -59 -62 -91 0 -29 -74 -138 -113 -168 -43 -33
-76 -40 -126 -26 -77 20 -140 109 -194 270 -44 134 -45 129 15 189 29 29 80
67 113 84 52 27 71 31 137 32 51 0 78 4 78 11 0 6 -23 42 -50 79 -27 37 -50
71 -50 75 0 4 7 24 15 43 21 50 20 126 -1 134 -10 4 -22 0 -28 -9 -6 -8 -30
-27 -54 -42 -48 -30 -74 -26 -44 8 33 36 39 58 37 130 -2 49 -8 76 -22 94 -32
42 -112 50 -224 23 -45 -10 -54 -3 -169 139 -25 30 -73 88 -107 128 -93 107
-270 346 -300 405 -30 59 -45 115 -33 122 4 3 37 -9 72 -25 51 -24 81 -31 145
-34 112 -4 167 26 70 38 -69 9 -136 57 -182 129 -9 15 -25 27 -35 27 -10 0
-23 6 -29 14 -9 11 -4 22 22 52 107 126 126 132 154 47 11 -31 24 -58 30 -60
6 -2 18 22 27 54 9 32 20 71 25 86 6 16 7 51 4 78 -5 39 -3 50 11 55 22 8 36
-5 90 -84 25 -37 68 -98 96 -137 76 -106 77 -108 52 -159 -30 -60 -28 -98 7
-138 16 -18 36 -50 44 -71 9 -20 21 -37 27 -37 6 0 8 -4 5 -10 -3 -5 1 -20 10
-33 14 -22 14 -27 -12 -73 -18 -31 -28 -65 -29 -95 -1 -41 4 -54 37 -96 22
-26 47 -66 58 -88 27 -60 43 -69 102 -62 46 6 56 3 93 -23 22 -16 50 -30 61
-31 48 -7 286 60 315 87 16 16 18 77 6 283 -5 87 -11 122 -26 145 -19 31 -94
82 -162 111 -36 15 -38 14 -53 -9 -20 -29 -77 -70 -130 -91 -39 -16 -39 -15
31 52 50 49 73 78 77 102 11 54 9 61 -28 82 -22 13 -42 37 -54 65 -26 57 -72
87 -126 80 -24 -3 -47 -13 -57 -25 -9 -12 -21 -21 -26 -21 -6 0 -43 44 -83 98
-40 53 -77 102 -83 107 -6 6 -24 28 -40 49 l-29 39 29 -6 c16 -4 40 -10 53
-13 l24 -7 -19 32 c-10 17 -29 39 -42 47 -13 8 -45 36 -71 62 -67 65 -120 111
-142 123 -22 11 -25 29 -5 29 7 0 64 -36 126 -81 228 -163 299 -202 460 -250
83 -25 117 -30 212 -30 62 -1 147 4 188 10 220 34 466 169 621 342 35 39 79
88 97 108 66 73 208 308 200 331 -2 6 -37 -13 -78 -41 -95 -65 -226 -131 -311
-157 -151 -47 -362 -51 -519 -12 -68 17 -205 78 -295 131 -109 65 -122 75
-110 88 8 8 32 5 80 -9 101 -30 248 -30 380 -1 161 35 373 148 509 272 43 39
176 200 176 213 0 3 14 25 31 50 82 123 195 414 207 535 4 50 3 54 -11 42 -9
-7 -32 -36 -51 -65 -79 -119 -275 -274 -426 -338 -77 -33 -92 -38 -157 -53
-100 -24 -116 -25 -258 -25 -147 0 -149 0 -265 29 -104 26 -140 40 -140 55 0
6 23 32 51 56 28 25 56 50 63 56 20 19 145 85 199 106 79 30 181 48 276 48
118 -1 118 -1 194 -16 38 -8 74 -14 80 -14 25 0 -109 104 -208 161 -69 40
-285 143 -345 164 -48 17 -248 67 -340 85 -76 16 -453 20 -550 8z m-960 -566
c125 -62 141 -81 91 -107 -17 -8 -47 -29 -66 -46 l-35 -31 -33 36 c-62 67
-116 208 -80 206 4 -1 60 -27 123 -58z m7 -304 c-14 -18 -39 -61 -56 -95 -17
-35 -34 -63 -37 -63 -10 0 6 72 25 115 24 54 69 101 83 87 7 -7 3 -20 -15 -44z
m246 -136 c45 -49 103 -242 94 -308 -2 -16 0 -35 5 -41 7 -9 -6 -40 -43 -105
-42 -71 -63 -98 -94 -115 -22 -12 -45 -23 -52 -23 -6 0 -22 24 -36 53 -13 28
-45 78 -70 109 -40 48 -47 63 -47 100 0 59 25 159 56 223 47 100 143 155 187
107z m267 -1877 c99 -156 216 -327 275 -405 23 -30 56 -77 73 -104 l33 -48
-36 -43 c-43 -54 -44 -84 -4 -130 28 -32 30 -39 20 -61 -26 -58 0 -132 67
-190 46 -39 45 -32 14 -214 -51 -298 -51 -298 -20 -341 28 -38 19 -44 -64 -44
l-63 0 3 38 c2 21 -1 44 -7 51 -5 6 -15 60 -21 118 -11 115 -39 238 -64 287
-22 42 -19 80 9 126 28 46 32 96 9 119 -11 12 -20 13 -34 6 -10 -6 -27 -10
-36 -10 -15 0 -15 3 5 23 13 15 21 36 21 55 0 18 0 47 0 64 -1 61 -43 98 -113
98 -46 0 -75 24 -82 68 -4 20 -11 51 -15 67 -5 17 -12 46 -15 65 -4 19 -10 53
-15 75 -4 22 -20 96 -34 165 -14 69 -30 145 -36 170 -5 25 -12 59 -15 75 -2
17 -9 54 -15 84 -15 78 5 87 45 20 17 -28 68 -111 115 -184z"/>
<path d="M683 3814 c-56 -12 -109 -24 -118 -27 -24 -10 -18 -33 18 -69 57 -60
210 -168 221 -157 2 2 6 36 7 74 2 62 7 95 24 171 7 32 -32 34 -152 8z"/>
<path d="M1350 2851 c0 -13 26 -32 33 -24 8 7 -11 33 -24 33 -5 0 -9 -4 -9 -9z"/>
</g>
</svg>
